<svg width="30" height="30" viewBox="0 0 30 30" fill="none" xmlns="http://www.w3.org/2000/svg">
<path d="M26.7857 0H3.21429C1.43973 0 0 1.43973 0 3.21429V26.7857C0 28.5603 1.43973 30 3.21429 30H26.7857C28.5603 30 30 28.5603 30 26.7857V3.21429C30 1.43973 28.5603 0 26.7857 0ZM18.5692 25.6942C18.0067 25.7946 17.7991 25.4464 17.7991 25.1585C17.7991 24.7969 17.8125 22.9487 17.8125 21.4554C17.8125 20.4107 17.4643 19.7478 17.0558 19.3996C19.5335 19.125 22.1451 18.7835 22.1451 14.5045C22.1451 13.2857 21.7098 12.6763 21 11.8929C21.1138 11.6049 21.4955 10.4196 20.8862 8.87946C19.9554 8.59152 17.8259 10.0781 17.8259 10.0781C16.942 9.83036 15.9844 9.70312 15.0402 9.70312C14.096 9.70312 13.1384 9.83036 12.2545 10.0781C12.2545 10.0781 10.125 8.59152 9.1942 8.87946C8.58482 10.4129 8.95982 11.5982 9.08036 11.8929C8.37054 12.6763 8.03571 13.2857 8.03571 14.5045C8.03571 18.7634 10.5335 19.125 13.0112 19.3996C12.6897 19.6875 12.4018 20.183 12.3013 20.8929C11.6652 21.1808 10.0379 21.6763 9.06696 19.9621C8.45759 18.904 7.35938 18.817 7.35938 18.817C6.27455 18.8036 7.28571 19.5 7.28571 19.5C8.00893 19.8348 8.51786 21.1205 8.51786 21.1205C9.16741 23.1094 12.2746 22.4397 12.2746 22.4397C12.2746 23.3705 12.2879 24.8839 12.2879 25.1585C12.2879 25.4464 12.0871 25.7946 11.5179 25.6942C7.09821 24.2143 4.00446 20.0089 4.00446 15.0937C4.00446 8.94643 8.70536 4.27902 14.8527 4.27902C21 4.27902 25.9821 8.94643 25.9821 15.0937C25.9888 20.0089 22.9888 24.221 18.5692 25.6942ZM12 21.6027C11.8728 21.6295 11.7522 21.5759 11.7388 21.4888C11.7254 21.3884 11.8125 21.3013 11.9397 21.2746C12.067 21.2612 12.1875 21.3147 12.2009 21.4018C12.221 21.4888 12.1339 21.5759 12 21.6027ZM11.3638 21.5424C11.3638 21.6295 11.2634 21.7031 11.1295 21.7031C10.9821 21.7165 10.8817 21.6429 10.8817 21.5424C10.8817 21.4554 10.9821 21.3817 11.1161 21.3817C11.2433 21.3683 11.3638 21.442 11.3638 21.5424ZM10.4464 21.4688C10.4196 21.5558 10.2857 21.596 10.1719 21.5558C10.0446 21.529 9.95759 21.4286 9.98438 21.3415C10.0112 21.2545 10.1451 21.2143 10.2589 21.2411C10.3929 21.2813 10.4799 21.3817 10.4464 21.4688ZM9.62277 21.1071C9.5625 21.1808 9.43527 21.1674 9.33482 21.067C9.23437 20.9799 9.20759 20.8527 9.27455 20.7924C9.33482 20.7187 9.46205 20.7321 9.5625 20.8326C9.64955 20.9196 9.68304 21.0536 9.62277 21.1071ZM9.01339 20.4978C8.95313 20.5379 8.83928 20.4978 8.76562 20.3973C8.69196 20.2969 8.69196 20.183 8.76562 20.1362C8.83928 20.0759 8.95313 20.1228 9.01339 20.2232C9.08705 20.3237 9.08705 20.4442 9.01339 20.4978ZM8.57812 19.8482C8.51786 19.9085 8.41741 19.875 8.34375 19.808C8.27009 19.721 8.2567 19.6205 8.31696 19.5737C8.37723 19.5134 8.47768 19.5469 8.55134 19.6138C8.625 19.7009 8.63839 19.8013 8.57812 19.8482ZM8.12946 19.3527C8.10268 19.4129 8.01562 19.4263 7.94196 19.3795C7.85491 19.3393 7.81473 19.2656 7.84152 19.2054C7.8683 19.1652 7.94196 19.1451 8.02902 19.1786C8.11607 19.2254 8.15625 19.2991 8.12946 19.3527Z" fill="#FF4713"/>
</svg>
