<svg viewBox="0 0 13 12" fill="none" xmlns="http://www.w3.org/2000/svg">
<path d="M6.00214 9.70139L3.18464 11.8383C3.04504 11.9518 2.89274 12.0055 2.72775 11.9995C2.56276 11.9934 2.41681 11.946 2.2899 11.8573C2.16298 11.769 2.06475 11.6492 1.9952 11.4979C1.92565 11.3467 1.92235 11.1828 1.9853 11.0063L3.07042 7.5077L0.310034 5.55986C0.157736 5.459 0.0625506 5.32663 0.0244763 5.16273C-0.013598 4.99883 -0.00725221 4.84755 0.0435136 4.70886C0.0942793 4.57018 0.183119 4.44713 0.310034 4.33972C0.436948 4.2323 0.589245 4.17885 0.766925 4.17935H4.17458L5.27873 0.548425C5.34219 0.371922 5.44067 0.236267 5.57419 0.141459C5.7077 0.0466515 5.85035 -0.000500293 6.00214 4.00233e-06C6.15444 4.00233e-06 6.29735 0.0474079 6.43086 0.142216C6.56437 0.237023 6.66261 0.372426 6.72556 0.548425L7.82971 4.17935H11.2374C11.415 4.17935 11.5673 4.23306 11.6943 4.34048C11.8212 4.44789 11.91 4.57069 11.9608 4.70886C12.0115 4.84755 12.0179 4.99883 11.9798 5.16273C11.9417 5.32663 11.8466 5.459 11.6943 5.55986L8.93387 7.5077L10.019 11.0063C10.0824 11.1828 10.0794 11.3467 10.0098 11.4979C9.9403 11.6492 9.84181 11.769 9.71439 11.8573C9.58748 11.9455 9.44152 11.9929 9.27654 11.9995C9.11155 12.006 8.95925 11.9523 8.81964 11.8383L6.00214 9.70139Z" fill="#FFD233"/>
</svg>
